<?xml version="1.0" encoding="iso-8859-1"?>
<!-- Generator: Adobe Illustrator 18.0.0, SVG Export Plug-In . SVG Version: 6.00 Build 0)  -->
<!DOCTYPE svg PUBLIC "-//W3C//DTD SVG 1.1//EN" "http://www.w3.org/Graphics/SVG/1.1/DTD/svg11.dtd">
<svg version="1.1" id="Capa_1" xmlns="http://www.w3.org/2000/svg" xmlns:xlink="http://www.w3.org/1999/xlink" x="0px" y="0px"
	 viewBox="0 0 494.957 494.957" style="enable-background:new 0 0 494.957 494.957;" xml:space="preserve">
<g>
	<path d="M393.328,78.561c-9.993-9.388-25.686-8.888-35.05,1.082l-39.232,41.743l-66.08,5.142h-76.042
		c-18.179,0-34.162,11.616-39.78,28.891L95.038,284.842c-4.23,13.021,2.89,27.01,15.918,31.248c2.551,0.832,5.135,1.227,7.669,1.227
		c10.462,0,20.181-6.66,23.588-17.138l7.135-21.93v191.619c0,13.853,11.237,25.088,25.09,25.088
		c13.853,0,25.089-11.229,25.089-25.088V319.924h19.826v149.945c0,13.859,11.236,25.088,25.089,25.088
		c13.853,0,25.09-11.229,25.09-25.088V174.913l62.915-4.827c6.167-0.477,11.931-3.237,16.161-7.742l45.803-48.733
		C403.79,103.633,403.305,87.933,393.328,78.561z"/>
	<path d="M209.439,109.211c30.158,0,54.601-24.443,54.601-54.602C264.04,24.452,239.597,0,209.439,0s-54.617,24.452-54.617,54.61
		C154.822,84.768,179.281,109.211,209.439,109.211z"/>
</g>
<g>
</g>
<g>
</g>
<g>
</g>
<g>
</g>
<g>
</g>
<g>
</g>
<g>
</g>
<g>
</g>
<g>
</g>
<g>
</g>
<g>
</g>
<g>
</g>
<g>
</g>
<g>
</g>
<g>
</g>
</svg>
